<?xml version="1.0" encoding="utf-8"?>
<!-- Generator: Adobe Illustrator 22.1.0, SVG Export Plug-In . SVG Version: 6.00 Build 0)  -->
<svg version="1.1" id="图层_1" xmlns="http://www.w3.org/2000/svg" xmlns:xlink="http://www.w3.org/1999/xlink" x="0px" y="0px"
	 viewBox="0 0 1000 1000" style="enable-background:new 0 0 1000 1000;" xml:space="preserve">
<style type="text/css">
	.st0{fill:#242424;}
	.st1{fill:#F7931E;}
</style>
<g>
	<path class="st0" d="M754.9,996H245.1C112.5,996,4,887.5,4,754.9V245.1C4,112.5,112.5,4,245.1,4h509.8C887.5,4,996,112.5,996,245.1
		v509.8C996,887.5,887.5,996,754.9,996z"/>
	<path class="st1" d="M754.9,1000H245.1c-65.2,0-126.7-25.6-173.1-72S0,820.1,0,754.9V245.1C0,179.9,25.6,118.4,72,72
		S179.9,0,245.1,0h509.8C820.1,0,881.6,25.6,928,72s72,107.9,72,173.1v509.8c0,65.2-25.6,126.7-72,173.1S820.1,1000,754.9,1000z
		 M245.1,7.9C114.3,7.9,7.9,114.3,7.9,245.1v509.8c0,130.8,106.4,237.2,237.2,237.2h509.8c130.8,0,237.2-106.4,237.2-237.2V245.1
		c0-130.8-106.4-237.2-237.2-237.2H245.1z"/>
</g>
<g>
	<path class="st1" d="M368,296.8c0-10,10.4-47.8,10.4-55.4c0-2.8-0.7-3.8-3.1-3.8c-2.1,0-4.5,1-7.3,2.8l-12.1,63.7h-16.3l10.7-56.5
		c1.4-6.6,1.7-10-2.1-10c-2.1,0-5.2,1-8,3.5c-4.8,26.3-12.1,63-12.1,63h-22.5c8-41.6,11.8-61.3,16.3-86.9l21.5-1.4l-1,8.7
		c6.6-6.9,12.8-10.4,18.4-10.4c6.2,0,9.4,3.8,9.4,12.5c8-8.3,15.9-12.5,22.9-12.5s10.4,3.8,10.4,12.1c0,14.9-12.5,52.6-12.5,60.6
		c0,1.7,1.4,2.4,4.8,2.1l1.7,12.1C375.9,308.2,368,307.2,368,296.8z"/>
	<path class="st1" d="M430.6,276l11.1-40.5l-27,1l-1.7-12.1l36.7-8.3h20.1l-14.5,55.4c-3.8,14.5-2.8,15.9,30.1,10.7l1.7,12.5
		C437.9,316.2,422.7,304.8,430.6,276z M448,204l5.5-24.2l27.7-1.4l-7.3,24.6L448,204z"/>
	<path class="st1" d="M549.8,293.7c0-13.2,9.7-37.7,9.7-49.5c0-4.5-1.7-7.3-6.2-7.3s-10.4,3.5-17,10l-11.8,57.5h-23.6
		c8-41.6,12.1-61.3,15.6-87.3l23.6-1.4l-2.1,14.5c10.4-10.7,20.8-16.3,30.8-16.3c12.5,0,15.9,8.3,15.9,18c0,17.3-10,43.6-10,51.6
		c0,3.1,1,3.5,10.7,1.4l1.7,11.8C562.6,311.3,549.8,307.9,549.8,293.7z"/>
	<path class="st1" d="M621.1,276l11.1-40.5l-27,1l-1.7-12.1l36.7-8.3h20.1l-14.5,55.4c-3.8,14.5-2.8,15.9,30.1,10.7l1.7,12.5
		C628.4,316.2,613.2,304.8,621.1,276z M638.4,204l5.5-24.2l27.7-1.4l-7.3,24.6L638.4,204z"/>
	<path class="st1" d="M319.8,473.8c-8.7-30.5-22.9-41.2-44.7-41.2c-19.7,0-34.3,11.8-34.3,28.1c0,43.3,112.2,74.1,112.2,139.2
		c0,49.9-61.3,101.1-215.1,71l13.2-65.8c96.6,27.4,130.2,16.6,130.2-2.8c0-35.7-110.1-64.8-110.1-133.7c0-49.2,46.1-92.8,115.7-92.8
		c55.4,0,80.7,30.8,90.4,86.2L319.8,473.8z"/>
	<path class="st1" d="M429.9,687.5l16.6-49.9c78.6-28.1,127.1-97.3,127.1-159.7c0-33.2-14.2-45-35-45c-43.3,0-65.8,61.6-52.6,151.3
		l-59.2,21.5c-38.4-104.6,12.5-231,119.8-231c65.8,0,97.7,41.2,97.7,101.5c0,74.8-56.5,145.5-128.5,182.9l89,36.4l-27,54.4
		L429.9,687.5z"/>
	<path class="st1" d="M667.9,675.3l56.8-294h69.3l-45.4,236.2h124.7l-11.4,57.8H667.9z"/>
</g>
</svg>
